<svg xmlns="http://www.w3.org/2000/svg" viewBox="0 0 160 160" width="192" height="192"><rect width="160" height="160" rx="40" fill="#195245"/><g transform="translate(8 12) scale(0.98)"><path fill="#FFFFFF" d="M21.71,94.48c0-2.01-1.31-3.7-3.12-4.29V73c0-0.11-0.06-0.21-0.15-0.27l-2.24-1.29
			c-0.2-0.12-0.46,0.03-0.46,0.27v18.47c-1.81,0.6-3.12,2.28-3.12,4.29c0,1.75,0.99,3.25,2.43,4l-3.42,16.19
			c1.02,0.28,1.58-0.68,2.86-0.6c1.16,0.07,1.7,1.11,2.69,1.18c1.18,0.07,2.02-1.09,3.01-1.1c0.87-0.02,1.72,0.98,2.49,0.52
			l-3.42-16.19C20.72,97.73,21.71,96.23,21.71,94.48z"/><path fill="#FFFFFF" d="M135.48,79.2l-12.37,7.14c-0.47,0.27-0.77,0.78-0.77,1.33v10.34c0,0.55-0.29,1.05-0.77,1.33L84.1,120.97
			c-0.47,0.27-1.06,0.27-1.53,0L45.1,99.34c-0.47-0.27-0.77-0.78-0.77-1.33V87.67c0-0.55-0.29-1.05-0.77-1.33L31.2,79.2
			c-1.02-0.59-2.3,0.15-2.3,1.33v26.39c0,0.55,0.29,1.05,0.77,1.33l52.9,30.55c0.47,0.27,1.06,0.27,1.53,0l52.91-30.55
			c0.47-0.27,0.77-0.78,0.77-1.33V80.53C137.78,79.35,136.5,78.61,135.48,79.2z"/><path fill="#6BC291" d="M157.67,55.23l-51.22-29.96c-0.48-0.28-1.07-0.28-1.55,0l-12.37,7.23c-1.01,0.59-1.01,2.06,0,2.65l35.9,21
			c0.3,0.18,0.3,0.62,0,0.79L92.51,77.94c-1.01,0.59-1.01,2.06,0,2.65l12.37,7.23c0.48,0.28,1.07,0.28,1.55,0l51.24-29.94
			C158.68,57.28,158.68,55.82,157.67,55.23z"/><path fill="#FFFFFF" d="M84.11,100.9l12.26-7.17c1.01-0.59,1.01-2.06,0-2.65L37.99,56.95c-0.3-0.18-0.3-0.62,0-0.79l58.37-34.13
			c1.01-0.59,1.01-2.06,0-2.65l-12.26-7.17c-0.48-0.28-1.07-0.28-1.55,0L8.99,55.23c-1.01,0.59-1.01,2.06,0,2.65l73.57,43.02
			C83.04,101.18,83.63,101.18,84.11,100.9z"/></g></svg>